# AST/ASF file generated using VICON BodyLanguage
# -----------------------------------------------
:version 1.10
:name VICON
:units
  mass 1.0
  length 0.45
  angle deg
:documentation
   .ast/.asf automatically generated from VICON data using
   VICON BodyBuilder and BodyLanguage model FoxedUp or BRILLIANT.MOD
:root
   order TX TY TZ RX RY RZ
   axis XYZ
   position 0 0 0  
   orientation 0 0 0 
:bonedata
  begin
     id 1 
     name lhipjoint
     direction 0.440178 -0.822639 0.359871 
     length 2.53113 
     axis 0 0 0  XYZ
  end
  begin
     id 2 
     name lfemur
     direction 0.34202 -0.939693 0  
     length 7.88132  
     axis 0 0 20  XYZ
    dof rx ry rz
    limits (-160.0 20.0)
           (-70.0 70.0)
           (-60.0 70.0)
  end
  begin
     id 3 
     name ltibia
     direction 0.34202 -0.939693 0   
     length 8.43783   
     axis 0 0 20   XYZ
    dof rx
    limits (-10.0 170.0)
  end
  begin
     id 4 
     name lfoot
     direction 0.0886351 -0.243523 0.965837   
     length 2.63414   
     axis -90 7.62852e-016 20   XYZ
    dof rx rz
    limits (-45.0 90.0)
           (-70.0 20.0)
  end
  begin
     id 5 
     name ltoes
     direction 1.53703e-011 -4.21717e-011 1   
     length 1.31427   
     axis -90 7.62852e-016 20   XYZ
    dof rx
    limits (-90.0 20.0)
  end
  begin
     id 6 
     name rhipjoint
     direction -0.399779 -0.839773 0.367367   
     length 2.47948  
     axis 0 0 0  XYZ 
  end
  begin
     id 7 
     name rfemur
     direction -0.34202 -0.939693 0   
     length 7.74806   
     axis 0 0 -20   XYZ
    dof rx ry rz
    limits (-160.0 20.0)
           (-70.0 70.0)
           (-70.0 60.0)
  end
  begin
     id 8 
     name rtibia
     direction -0.34202 -0.939693 0   
     length 8.74432   
     axis 0 0 -20   XYZ
    dof rx
    limits (-10.0 170.0)
 end
 begin
     id 9 
     name rfoot
     direction -0.108514 -0.298139 0.948334   
     length 2.66102  
     axis -90 -7.62852e-016 -20   XYZ
    dof rx rz
    limits (-45.0 90.0)
           (-20.0 70.0)
  end
  begin
     id 10 
     name rtoes
     direction -1.53392e-011 -4.22077e-011 1   
     length 1.31983   
     axis -90 -7.62852e-016 -20   XYZ
    dof rx
    limits (-90.0 20.0)
  end
  begin
     id 11 
     name lowerback
     direction 0.0113257 0.999866 0.0118602   
     length 2.58694   
     axis 0 0 0   XYZ
    dof rx ry rz
    limits (-20.0 45.0)
           (-30.0 30.0)
           (-30.0 30.0)
  end
  begin
     id 12 
     name upperback
     direction -0.0164747 0.995193 -0.0965375   
     length 2.52368   
     axis 0 0 0   XYZ
    dof rx ry rz
    limits (-20.0 45.0)
           (-30.0 30.0)
           (-30.0 30.0)
  end
  begin
     id 13 
     name thorax
     direction -0.0194301 0.99433 -0.104552   
     length 2.56099   
     axis 0 0 0   XYZ
    dof rx ry rz
    limits (-20.0 45.0)
           (-30.0 30.0)
           (-30.0 30.0)
  end
  begin
     id 14 
     name lowerneck
     direction 0.0148543 0.995587 -0.092657   
     length 1.71582   
     axis 0 0 0   XYZ
    dof rx ry rz
    limits (-20.0 45.0)
           (-30.0 30.0)
           (-30.0 30.0)
  end
  begin
     id 15 
     name upperneck
     direction -0.0135467 0.993656 -0.111639   
     length 1.68937   
     axis 0 0 0   XYZ
    dof rx ry rz
    limits (-20.0 45.0)
           (-30.0 30.0)
           (-30.0 30.0)
  end
  begin
     id 16
     name head
     direction -0.00615349 0.999547 -0.029448  
     length 1.7462  
     axis 0 0 0   XYZ
    dof rx ry rz
    limits (-20.0 45.0)
           (-30.0 30.0)
           (-30.0 30.0)
  end
  begin
     id 17 
     name lclavicle
     direction 0.988267 0.149885 0.0293713  
     length 4.47222  
     axis 0 0 0   XYZ
    dof ry rz
    limits (-20.0 10.0)
           (0.0 20.0)
  end
  begin
     id 18 
     name lhumerus
     direction 1 -4.48986e-011 -1.14833e-027   
     length 5.37148   
     axis 180 -30 -90   XYZ
    dof rx ry rz
    limits (-60.0 90.0)
           (-90.0 90.0)
           (-90.0 90.0)
  end
  begin
     id 19
     name lradius
     direction 0.999998 0.00170963 -0.000987055   
     length 3.94212   
     axis 180 -30 -90   XYZ
    dof rx
    limits (-10.0 170.0)
  end
  begin
     id 20
     name lwrist
     direction 0.999998 7.53149e-005 -0.00194706   
     length 1.97106   
     axis 4.65056e-015 90 90   XYZ
    dof ry
    limits (-180.0 0.0)
 end
  begin
     id 21 
     name lhand
     direction 1 -4.48973e-011 -1.31746e-026   
     length 1.17917   
     axis 8.4065e-015 90 90   XYZ
    dof rx rz
    limits (-90.0 90.0)
           (-45.0 45.0)
  end
  begin
     id 22 
     name lfingers
     direction 1 -4.49107e-011 -2.63492e-026   
     length 0.950679   
     axis 1.6813e-014 90 90   XYZ
    dof rx
    limits (0.0 90.0)
  end
  begin
     id 23
     name lthumb
     direction 0.707107 -6.35048e-011 0.707107   
     length 1.36499   
     axis -90 45 2.85299e-015   XYZ
    dof rx rz
    limits (-45.0 45.0)
           (-45.0 45.0)
  end
  begin
     id 24 
     name rclavicle
     direction -0.996699 0.0642895 -0.0495725   
     length 4.62611  
     axis 0 0 0   XYZ 
    dof ry rz
    limits (-10.0 20.0)
           (-20.0 0.0)
  end
  begin
     id 25 
     name rhumerus
     direction -1 -4.48919e-011 -2.41059e-027  
     length 5.4981   
     axis 180 30 90   XYZ
    dof rx ry rz
    limits (-90.0 60.0)
           (-90.0 90.0)
           (-90.0 90.0)
  end
  begin
     id 26 
     name rradius
     direction -0.999999 0.00118101 -0.000681858   
     length 3.48381   
     axis 180 30 90   XYZ
    dof rx
    limits (-10.0 170.0)
  end
  begin
     id 27 
     name rwrist
     direction -0.999999 0.000321823 -0.00132288   
     length 1.7419   
     axis 4.65056e-015 -90 -90   XYZ
    dof ry
    limits (-180.0 0.0)
  end
  begin
     id 28
     name rhand
     direction -1 -4.49022e-011 -1.31746e-026   
     length 1.34932   
     axis 8.4065e-015 -90 -90   XYZ
    dof rx rz
    limits (-90.0 90.0)
           (-45.0 45.0)
  end
  begin
     id 29
     name rfingers
     direction -1 -4.49178e-011 -2.63492e-026   
     length 1.08785   
     axis 1.6813e-014 -90 -90   XYZ
    dof rx
    limits (0.0 90.0)
  end
  begin
     id 30
     name rthumb
     direction -0.707107 -6.34713e-011 0.707107   
     length 1.56195   
     axis -90 -45 -2.85299e-015   XYZ
    dof rx rz
    limits (-45.0 45.0)
           (-45.0 45.0)
  end
:hierarchy
  begin
    root lhipjoint rhipjoint lowerback
    lhipjoint lfemur
    lfemur ltibia
    ltibia lfoot
    lfoot ltoes
    rhipjoint rfemur
    rfemur rtibia
    rtibia rfoot
    rfoot rtoes
    lowerback upperback
    upperback thorax
    thorax lowerneck lclavicle rclavicle
    lowerneck upperneck
    upperneck head
    lclavicle lhumerus
    lhumerus lradius
    lradius lwrist
    lwrist lhand lthumb
    lhand lfingers
    rclavicle rhumerus
    rhumerus rradius
    rradius rwrist
    rwrist rhand rthumb
    rhand rfingers
  end

#!OML:ASF X:\für Bonn\!DataBase\2005_08_10_Bjorn_Final\c3d\bjorn.ASF
:FULLY-SPECIFIED
:DEGREES
17
root 0.517967 19.0779 2.2429 -175.617 1.85414 179.296
lowerback -5.20331 2.32413 0.753324
upperback 3.76169 3.18575 -0.880441
thorax 6.93856 1.66034 -0.981518
lowerneck -12.0585 -1.89964 1.43401
upperneck 16.8154 -2.83895 -2.15351
head 7.08051 -1.60097 -1.22227
rclavicle 1.19519e-014 -8.3738e-015
rhumerus 71.8946 2.43955 -85.4702
rradius 4.96619
rwrist 49.9663
rhand -13.967 6.30425
rfingers 7.12502
rthumb 12.1609 -23.3223
lclavicle 1.19519e-014 -8.3738e-015
lhumerus 73.3634 -11.9207 88.6695
lradius 4.34266
lwrist -80.3296
lhand -11.2165 1.00844
lfingers 7.12502
lthumb 14.8119 30.4591
rfemur -15.959 -8.57239 17.1729
rtibia 34.5891
rfoot -19.1634 16.1363
rtoes -12.938
lfemur -13.3415 10.4167 -18.7729
ltibia 32.5143
lfoot -17.3637 -7.31865
ltoes -6.60183
18
root 0.521629 19.0568 2.27261 -175.691 1.85475 179.092
lowerback -4.57953 2.29059 0.552043
upperback 3.88092 3.18051 -0.969944
thorax 6.69877 1.65898 -0.986547
lowerneck -12.0282 -1.93237 1.47975
upperneck 16.3678 -2.86376 -2.14488
head 6.92927 -1.59818 -1.22073
rclavicle -1.00324e-014 4.57205e-015
rhumerus 71.9992 2.4006 -85.4649
rradius 5.18762
rwrist 50.3572
rhand -14.2128 6.56787
rfingers 7.12502
rthumb 11.9239 -23.0726
lclavicle -1.00324e-014 4.57205e-015
lhumerus 73.5679 -11.9784 88.4986
lradius 4.34373
lwrist -80.3389
lhand -11.4445 0.731261
lfingers 7.12502
lthumb 14.5922 30.1979
rfemur -16.2594 -8.35519 16.9782
rtibia 35.1259
rfoot -19.3773 15.9203
rtoes -13.1811
lfemur -13.6919 10.3179 -19.0172
ltibia 33.1269
lfoot -17.5004 -7.10646
ltoes -7.11809
19
root 0.524775 19.0323 2.30352 -175.794 1.86594 178.892
lowerback -3.91728 2.25327 0.346474
upperback 4.01977 3.16968 -1.04479
thorax 6.45673 1.65581 -0.975388
lowerneck -12.0348 -1.95123 1.5308
upperneck 15.8989 -2.86702 -2.15127
head 6.77829 -1.58579 -1.22322
rclavicle 1.78285e-014 1.39149e-015
rhumerus 72.0925 2.38624 -85.4479
rradius 5.46875
rwrist 50.6663
rhand -14.3575 6.86657
rfingers 7.12502
rthumb 11.7843 -22.7819
lclavicle 1.78285e-014 1.39149e-015
lhumerus 73.8104 -12.0102 88.336
lradius 4.301
lwrist -80.5153
lhand -11.5966 0.583087
lfingers 7.12502
lthumb 14.4457 30.0603
rfemur -16.5836 -8.21519 16.7807
rtibia 35.7526
rfoot -19.6085 15.7525
rtoes -13.4257
lfemur -14.077 10.2115 -19.251
ltibia 33.8605
lfoot -17.6401 -6.93986
ltoes -7.09462
20
root 0.528651 19.0027 2.33743 -175.906 1.87603 178.691
lowerback -3.20666 2.2134 0.1536
upperback 4.1513 3.1548 -1.14412
thorax 6.18171 1.65313 -0.999061
lowerneck -12.0282 -1.95402 1.61257
upperneck 15.4206 -2.86124 -2.12409
head 6.62284 -1.56507 -1.21902
rclavicle 1.35919e-014 -1.09332e-015
rhumerus 72.1784 2.35028 -85.4676
rradius 5.70839
rwrist 50.7539
rhand -14.5955 7.19509
rfingers 7.12502
rthumb 11.5548 -22.4664
lclavicle 1.35919e-014 -1.09332e-015
lhumerus 74.057 -12.0613 88.1353
lradius 4.1555
lwrist -80.4107
lhand -12.0474 0.612376
lfingers 7.12502
lthumb 14.0113 30.1202
rfemur -16.9537 -8.06437 16.5796
rtibia 36.4717
rfoot -19.8466 15.623
rtoes -13.4749
lfemur -14.5273 10.1286 -19.4852
ltibia 34.724
lfoot -17.862 -6.74231
ltoes -7.37193
21
root 0.531552 18.969 2.37243 -176.007 1.89649 178.493
lowerback -2.47247 2.17767 -0.0570858
upperback 4.25968 3.14039 -1.21296
thorax 5.8666 1.64912 -0.98243
lowerneck -11.995 -1.95949 1.65981
upperneck 14.9396 -2.85015 -2.1264
head 6.46264 -1.54764 -1.21801
rclavicle 2.15681e-014 2.5345e-015
rhumerus 72.2563 2.34775 -85.4422
rradius 5.90075
rwrist 50.6345
rhand -14.8219 7.54254
rfingers 7.12502
rthumb 11.3365 -22.1311
lclavicle 2.15681e-014 2.5345e-015
lhumerus 74.2816 -12.0937 87.9907
lradius 4.00063
lwrist -80.4565
lhand -12.3728 0.690405
lfingers 7.12502
lthumb 13.6977 30.2196
rfemur -17.3934 -7.95973 16.376
rtibia 37.2795
rfoot -20.0772 15.5757
rtoes -13.5281
lfemur -15.0587 9.91492 -19.733
ltibia 35.7169
lfoot -18.1148 -6.45498
ltoes -7.30805
22
root 0.53537 18.9304 2.41002 -176.136 1.88386 178.33
lowerback -1.69964 2.13412 -0.231193
upperback 4.39892 3.11411 -1.27338
thorax 5.56407 1.6428 -0.978844
lowerneck -12.0277 -1.96547 1.73202
upperneck 14.4704 -2.846 -2.12472
head 6.31766 -1.53204 -1.22172
rclavicle -1.66606e-014 2.48481e-015
rhumerus 72.396 2.3287 -85.4143
rradius 6.11115
rwrist 50.5279
rhand -15.0079 7.86457
rfingers 7.12502
rthumb 11.1571 -21.8188
lclavicle -1.66606e-014 2.48481e-015
lhumerus 74.5714 -12.1311 87.8311
lradius 3.86594
lwrist -80.6096
lhand -12.5732 0.733371
lfingers 7.12502
lthumb 13.5046 30.2755
rfemur -17.8525 -7.87176 16.2156
rtibia 38.1716
rfoot -20.3046 15.5078
rtoes -13.3822
lfemur -15.6449 9.72553 -19.9316
ltibia 36.8485
lfoot -18.3981 -6.18827
ltoes -7.22724
23
root 0.538306 18.8881 2.4493 -176.294 1.88068 178.168
lowerback -0.874788 2.09171 -0.368134
upperback 4.55234 3.09085 -1.36719
thorax 5.25175 1.64274 -1.03163
lowerneck -12.0323 -1.97767 1.8248
upperneck 13.9417 -2.8572 -2.09971
head 6.1492 -1.52111 -1.22158
rclavicle -2.94698e-014 1.2921e-014
rhumerus 72.6094 2.2742 -85.4218
rradius 6.27261
rwrist 50.4745
rhand -15.126 8.17353
rfingers 7.12502
rthumb 11.0432 -21.516
lclavicle -2.94698e-014 1.2921e-014
lhumerus 74.8933 -12.1559 87.6051
lradius 3.76829
lwrist -80.7961
lhand -12.6723 0.694779
lfingers 7.12502
lthumb 13.409 30.2432
rfemur -18.3364 -7.82512 16.045
rtibia 39.1544
rfoot -20.5756 15.501
rtoes -13.395
lfemur -16.2818 9.5335 -20.1265
ltibia 38.1055
lfoot -18.6543 -5.98865
ltoes -6.65364
24
root 0.541182 18.8393 2.49008 -176.459 1.86342 178.062
lowerback -0.0534212 2.04579 -0.458249
upperback 4.74745 3.06327 -1.4308
thorax 4.9869 1.6439 -1.07785
lowerneck -12.1546 -1.99012 1.89243
upperneck 13.4364 -2.87043 -2.04273
head 6.00962 -1.5104 -1.20961
rclavicle -8.27441e-015 -1.18277e-014
rhumerus 72.9108 2.21414 -85.3963
rradius 6.41928
rwrist 50.4162
rhand -15.2402 8.43528
rfingers 7.12502
rthumb 10.9331 -21.2601
lclavicle -8.27441e-015 -1.18277e-014
lhumerus 75.299 -12.1587 87.3846
lradius 3.70644
lwrist -80.8855
lhand -12.6372 0.547333
lfingers 7.12502
lthumb 13.4429 30.0935
rfemur -18.8586 -7.7571 15.9377
rtibia 40.2275
rfoot -20.8973 15.4731
rtoes -13.3302
lfemur -16.985 9.3563 -20.2654
ltibia 39.4894
lfoot -18.9206 -5.76889
ltoes -6.20735
25
root 0.544687 18.7853 2.5326 -176.644 1.84766 177.939
lowerback 0.801208 1.99884 -0.547459
upperback 4.98657 3.04281 -1.5194
thorax 4.75206 1.65307 -1.14984
lowerneck -12.4351 -2.01712 1.91191
upperneck 12.96 -2.9123 -1.87879
head 5.90826 -1.50795 -1.16128
rclavicle 2.31087e-014 -1.98785e-015
rhumerus 73.2641 2.11203 -85.389
rradius 6.60615
rwrist 50.3263
rhand -15.2911 8.69813
rfingers 7.12502
rthumb 10.884 -20.9998
lclavicle 2.31087e-014 -1.98785e-015
lhumerus 75.7939 -12.163 87.1158
lradius 3.7058
lwrist -80.7847
lhand -12.5269 0.259068
lfingers 7.12502
lthumb 13.5492 29.7982
rfemur -19.4219 -7.71768 15.8096
rtibia 41.3937
rfoot -21.2662 15.462
rtoes -13.4993
lfemur -17.7336 9.17976 -20.414
ltibia 40.9844
lfoot -19.2068 -5.58736
ltoes -5.6181
26
root 0.54714 18.7248 2.57582 -176.837 1.81136 177.85
lowerback 1.70161 1.94063 -0.603331
upperback 5.20141 3.00421 -1.59331
thorax 4.46749 1.65479 -1.22802
lowerneck -12.7237 -2.03573 1.93672
upperneck 12.5329 -2.9433 -1.74864
head 5.8234 -1.50481 -1.12473
rclavicle 2.71093e-014 3.57812e-015
rhumerus 73.5689 2.02879 -85.3829
rradius 6.82444
rwrist 50.2684
rhand -15.2353 8.88023
rfingers 7.12502
rthumb 10.9378 -20.8149
lclavicle 2.71093e-014 3.57812e-015
lhumerus 76.29 -12.1348 86.8487
lradius 3.73277
lwrist -80.5696
lhand -12.3462 -0.200838
lfingers 7.12502
lthumb 13.7234 29.3266
rfemur -20.0226 -7.71463 15.7145
rtibia 42.6617
rfoot -21.6866 15.5052
rtoes -13.4557
lfemur -18.5434 9.04206 -20.5319
ltibia 42.5912
lfoot -19.4947 -5.41717
ltoes -5.28336
